<?xml version="1.0" encoding="UTF-8" standalone="no"?>
<!DOCTYPE svg PUBLIC "-//W3C//DTD SVG 1.1//EN"
 "http://www.w3.org/Graphics/SVG/1.1/DTD/svg11.dtd">
<!-- Generated by graphviz version 2.40.1 (20161225.0304)
 -->
<!-- Title: dependencies Pages: 1 -->
<svg width="979pt" height="284pt"
 viewBox="0.00 0.00 979.00 284.00" xmlns="http://www.w3.org/2000/svg" xmlns:xlink="http://www.w3.org/1999/xlink">
<g id="graph0" class="graph" transform="scale(1 1) rotate(0) translate(4 280)">
<title>dependencies</title>
<polygon fill="#ffffff" stroke="transparent" points="-4,4 -4,-280 975,-280 975,4 -4,4"/>
<text text-anchor="start" x="464.5091" y="-42.4" font-family="sans-serif" font-weight="bold" font-size="14.00" fill="#000000">Legend</text>
<polygon fill="#ffffb3" stroke="transparent" points="251.5,-10 251.5,-30 271.5,-30 271.5,-10 251.5,-10"/>
<text text-anchor="start" x="275.129" y="-15.4" font-family="sans-serif" font-size="14.00" fill="#000000"> &#160;Declarations</text>
<polygon fill="#8dd3c7" stroke="transparent" points="364.5,-10 364.5,-30 384.5,-30 384.5,-10 364.5,-10"/>
<text text-anchor="start" x="388.2251" y="-15.4" font-family="sans-serif" font-size="14.00" fill="#000000"> &#160;Module</text>
<polygon fill="#80b1d3" stroke="transparent" points="450.5,-10 450.5,-30 470.5,-30 470.5,-10 450.5,-10"/>
<text text-anchor="start" x="474.2812" y="-15.4" font-family="sans-serif" font-size="14.00" fill="#000000"> &#160;Bootstrap</text>
<polygon fill="#fdb462" stroke="transparent" points="547.5,-10 547.5,-30 567.5,-30 567.5,-10 547.5,-10"/>
<text text-anchor="start" x="571.1732" y="-15.4" font-family="sans-serif" font-size="14.00" fill="#000000"> &#160;Providers</text>
<polygon fill="#fb8072" stroke="transparent" points="643.5,-10 643.5,-30 663.5,-30 663.5,-10 643.5,-10"/>
<text text-anchor="start" x="667.2258" y="-15.4" font-family="sans-serif" font-size="14.00" fill="#000000"> &#160;Exports</text>
<g id="clust1" class="cluster">
<title>cluster_AppModule</title>
<polygon fill="none" stroke="#000000" stroke-dasharray="1,5" points="8,-70 8,-268 655,-268 655,-70 8,-70"/>
</g>
<g id="clust2" class="cluster">
<title>cluster_AppModule_declarations</title>
<polygon fill="none" stroke="#000000" points="146,-78 146,-130 647,-130 647,-78 146,-78"/>
</g>
<g id="clust6" class="cluster">
<title>cluster_AppModule_imports</title>
<polygon fill="none" stroke="#000000" points="16,-78 16,-130 138,-130 138,-78 16,-78"/>
</g>
<g id="clust8" class="cluster">
<title>cluster_AppModule_bootstrap</title>
<polygon fill="none" stroke="#000000" points="271,-208 271,-260 395,-260 395,-208 271,-208"/>
</g>
<g id="clust16" class="cluster">
<title>cluster_NgxUploadModule</title>
<polygon fill="none" stroke="#000000" stroke-dasharray="1,5" points="663,-70 663,-268 817,-268 817,-70 663,-70"/>
</g>
<g id="clust17" class="cluster">
<title>cluster_NgxUploadModule_declarations</title>
<polygon fill="none" stroke="#000000" points="673,-78 673,-130 807,-130 807,-78 673,-78"/>
</g>
<g id="clust20" class="cluster">
<title>cluster_NgxUploadModule_exports</title>
<polygon fill="none" stroke="#000000" points="671,-208 671,-260 809,-260 809,-208 671,-208"/>
</g>
<g id="clust23" class="cluster">
<title>cluster_TestModule</title>
<polygon fill="none" stroke="#000000" stroke-dasharray="1,5" points="825,-70 825,-195 963,-195 963,-70 825,-70"/>
</g>
<g id="clust24" class="cluster">
<title>cluster_TestModule_declarations</title>
<polygon fill="none" stroke="#000000" points="833,-78 833,-130 955,-130 955,-78 833,-78"/>
</g>
<!-- AppComponent -->
<g id="node1" class="node">
<title>AppComponent</title>
<polygon fill="#ffffb3" stroke="#000000" points="638.9399,-122 533.0601,-122 533.0601,-86 638.9399,-86 638.9399,-122"/>
<text text-anchor="middle" x="586" y="-99.8" font-family="Times,serif" font-size="14.00" fill="#000000">AppComponent</text>
</g>
<!-- AppModule -->
<g id="node4" class="node">
<title>AppModule</title>
<polygon fill="#8dd3c7" stroke="#000000" points="374.6571,-187 371.6571,-191 350.6571,-191 347.6571,-187 291.3429,-187 291.3429,-151 374.6571,-151 374.6571,-187"/>
<text text-anchor="middle" x="333" y="-164.8" font-family="Times,serif" font-size="14.00" fill="#000000">AppModule</text>
</g>
<!-- AppComponent&#45;&gt;AppModule -->
<g id="edge1" class="edge">
<title>AppComponent&#45;&gt;AppModule</title>
<path fill="none" stroke="#000000" d="M603.5732,-122.2843C603.5732,-143.3211 603.5732,-175 603.5732,-175 603.5732,-175 384.6841,-175 384.6841,-175"/>
<polygon fill="#000000" stroke="#000000" points="384.6841,-171.5001 374.6841,-175 384.6841,-178.5001 384.6841,-171.5001"/>
</g>
<!-- AppComponent&#45;&gt;AppModule -->
<g id="edge6" class="edge">
<title>AppComponent&#45;&gt;AppModule</title>
<path fill="none" stroke="#000000" d="M568.4268,-122.0225C568.4268,-139.3734 568.4268,-163 568.4268,-163 568.4268,-163 384.8183,-163 384.8183,-163"/>
<polygon fill="#000000" stroke="#000000" points="384.8184,-159.5001 374.8183,-163 384.8183,-166.5001 384.8184,-159.5001"/>
</g>
<!-- SimpleBootstrapComponent -->
<g id="node2" class="node">
<title>SimpleBootstrapComponent</title>
<polygon fill="#ffffb3" stroke="#000000" points="515.9396,-122 340.0604,-122 340.0604,-86 515.9396,-86 515.9396,-122"/>
<text text-anchor="middle" x="428" y="-99.8" font-family="Times,serif" font-size="14.00" fill="#000000">SimpleBootstrapComponent</text>
</g>
<!-- SimpleBootstrapComponent&#45;&gt;AppModule -->
<g id="edge2" class="edge">
<title>SimpleBootstrapComponent&#45;&gt;AppModule</title>
<path fill="none" stroke="#000000" d="M363.3123,-122.1061C363.3123,-122.1061 363.3123,-140.991 363.3123,-140.991"/>
<polygon fill="#000000" stroke="#000000" points="359.8124,-140.9909 363.3123,-150.991 366.8124,-140.991 359.8124,-140.9909"/>
</g>
<!-- SimpleBootstrapComponent&#45;&gt;AppModule -->
<g id="edge7" class="edge">
<title>SimpleBootstrapComponent&#45;&gt;AppModule</title>
<path fill="none" stroke="#000000" d="M351.7964,-122.1061C351.7964,-122.1061 351.7964,-140.991 351.7964,-140.991"/>
<polygon fill="#000000" stroke="#000000" points="348.2965,-140.9909 351.7964,-150.991 355.2965,-140.991 348.2965,-140.9909"/>
</g>
<!-- SimpleMaterialComponent -->
<g id="node3" class="node">
<title>SimpleMaterialComponent</title>
<polygon fill="#ffffb3" stroke="#000000" points="322.4227,-122 153.5773,-122 153.5773,-86 322.4227,-86 322.4227,-122"/>
<text text-anchor="middle" x="238" y="-99.8" font-family="Times,serif" font-size="14.00" fill="#000000">SimpleMaterialComponent</text>
</g>
<!-- SimpleMaterialComponent&#45;&gt;AppModule -->
<g id="edge3" class="edge">
<title>SimpleMaterialComponent&#45;&gt;AppModule</title>
<path fill="none" stroke="#000000" d="M301.5182,-122.1061C301.5182,-122.1061 301.5182,-140.991 301.5182,-140.991"/>
<polygon fill="#000000" stroke="#000000" points="298.0183,-140.9909 301.5182,-150.991 305.0183,-140.991 298.0183,-140.9909"/>
</g>
<!-- SimpleMaterialComponent&#45;&gt;AppModule -->
<g id="edge8" class="edge">
<title>SimpleMaterialComponent&#45;&gt;AppModule</title>
<path fill="none" stroke="#000000" d="M311.8647,-122.1061C311.8647,-122.1061 311.8647,-140.991 311.8647,-140.991"/>
<polygon fill="#000000" stroke="#000000" points="308.3648,-140.9909 311.8647,-150.991 315.3648,-140.991 308.3648,-140.9909"/>
</g>
<!-- AppComponent  -->
<g id="node6" class="node">
<title>AppComponent </title>
<polygon fill="#80b1d3" stroke="#000000" points="387.439,-252 278.561,-252 278.561,-216 387.439,-216 387.439,-252"/>
<text text-anchor="middle" x="333" y="-229.8" font-family="Times,serif" font-size="14.00" fill="#000000">AppComponent </text>
</g>
<!-- AppModule&#45;&gt;AppComponent  -->
<g id="edge5" class="edge">
<title>AppModule&#45;&gt;AppComponent </title>
<path fill="none" stroke="#000000" stroke-dasharray="1,5" d="M346.9427,-187.1061C346.9427,-187.1061 346.9427,-205.991 346.9427,-205.991"/>
<polygon fill="#000000" stroke="#000000" points="343.4428,-205.9909 346.9427,-215.991 350.4428,-205.991 343.4428,-205.9909"/>
</g>
<!-- AppModule&#45;&gt;AppComponent  -->
<g id="edge10" class="edge">
<title>AppModule&#45;&gt;AppComponent </title>
<path fill="none" stroke="#000000" stroke-dasharray="1,5" d="M319.0573,-187.1061C319.0573,-187.1061 319.0573,-205.991 319.0573,-205.991"/>
<polygon fill="#000000" stroke="#000000" points="315.5574,-205.9909 319.0573,-215.991 322.5574,-205.991 315.5574,-205.9909"/>
</g>
<!-- MaterialModule -->
<g id="node5" class="node">
<title>MaterialModule</title>
<polygon fill="#8dd3c7" stroke="#000000" points="130.4706,-122 127.4706,-126 106.4706,-126 103.4706,-122 23.5294,-122 23.5294,-86 130.4706,-86 130.4706,-122"/>
<text text-anchor="middle" x="77" y="-99.8" font-family="Times,serif" font-size="14.00" fill="#000000">MaterialModule</text>
</g>
<!-- MaterialModule&#45;&gt;AppModule -->
<g id="edge4" class="edge">
<title>MaterialModule&#45;&gt;AppModule</title>
<path fill="none" stroke="#000000" d="M94.8284,-122.0225C94.8284,-139.3734 94.8284,-163 94.8284,-163 94.8284,-163 281.2411,-163 281.2411,-163"/>
<polygon fill="#000000" stroke="#000000" points="281.2412,-166.5001 291.2411,-163 281.2411,-159.5001 281.2412,-166.5001"/>
</g>
<!-- MaterialModule&#45;&gt;AppModule -->
<g id="edge9" class="edge">
<title>MaterialModule&#45;&gt;AppModule</title>
<path fill="none" stroke="#000000" d="M59.1716,-122.2843C59.1716,-143.3211 59.1716,-175 59.1716,-175 59.1716,-175 281.1133,-175 281.1133,-175"/>
<polygon fill="#000000" stroke="#000000" points="281.1133,-178.5001 291.1133,-175 281.1132,-171.5001 281.1133,-178.5001"/>
</g>
<!-- ...ngxDeclarations -->
<g id="node7" class="node">
<title>...ngxDeclarations</title>
<polygon fill="#ffffb3" stroke="#000000" points="799.2422,-122 680.7578,-122 680.7578,-86 799.2422,-86 799.2422,-122"/>
<text text-anchor="middle" x="740" y="-99.8" font-family="Times,serif" font-size="14.00" fill="#000000">...ngxDeclarations</text>
</g>
<!-- NgxUploadModule -->
<g id="node8" class="node">
<title>NgxUploadModule</title>
<polygon fill="#8dd3c7" stroke="#000000" points="802.3683,-187 799.3683,-191 778.3683,-191 775.3683,-187 677.6317,-187 677.6317,-151 802.3683,-151 802.3683,-187"/>
<text text-anchor="middle" x="740" y="-164.8" font-family="Times,serif" font-size="14.00" fill="#000000">NgxUploadModule</text>
</g>
<!-- ...ngxDeclarations&#45;&gt;NgxUploadModule -->
<g id="edge11" class="edge">
<title>...ngxDeclarations&#45;&gt;NgxUploadModule</title>
<path fill="none" stroke="#000000" d="M740,-122.1061C740,-122.1061 740,-140.991 740,-140.991"/>
<polygon fill="#000000" stroke="#000000" points="736.5001,-140.9909 740,-150.991 743.5001,-140.991 736.5001,-140.9909"/>
</g>
<!-- ...ngxDeclarations  -->
<g id="node9" class="node">
<title>...ngxDeclarations </title>
<polygon fill="#fb8072" stroke="#000000" points="800.7423,-252 679.2577,-252 679.2577,-216 800.7423,-216 800.7423,-252"/>
<text text-anchor="middle" x="740" y="-229.8" font-family="Times,serif" font-size="14.00" fill="#000000">...ngxDeclarations </text>
</g>
<!-- NgxUploadModule&#45;&gt;...ngxDeclarations  -->
<g id="edge12" class="edge">
<title>NgxUploadModule&#45;&gt;...ngxDeclarations </title>
<path fill="none" stroke="#000000" stroke-dasharray="5,2" d="M740,-187.1061C740,-187.1061 740,-205.991 740,-205.991"/>
<polygon fill="#000000" stroke="#000000" points="736.5001,-205.9909 740,-215.991 743.5001,-205.991 736.5001,-205.9909"/>
</g>
<!-- TestComponent -->
<g id="node10" class="node">
<title>TestComponent</title>
<polygon fill="#ffffb3" stroke="#000000" points="946.9357,-122 841.0643,-122 841.0643,-86 946.9357,-86 946.9357,-122"/>
<text text-anchor="middle" x="894" y="-99.8" font-family="Times,serif" font-size="14.00" fill="#000000">TestComponent</text>
</g>
<!-- TestModule -->
<g id="node11" class="node">
<title>TestModule</title>
<polygon fill="#8dd3c7" stroke="#000000" points="935.6529,-187 932.6529,-191 911.6529,-191 908.6529,-187 852.3471,-187 852.3471,-151 935.6529,-151 935.6529,-187"/>
<text text-anchor="middle" x="894" y="-164.8" font-family="Times,serif" font-size="14.00" fill="#000000">TestModule</text>
</g>
<!-- TestComponent&#45;&gt;TestModule -->
<g id="edge13" class="edge">
<title>TestComponent&#45;&gt;TestModule</title>
<path fill="none" stroke="#000000" d="M894,-122.1061C894,-122.1061 894,-140.991 894,-140.991"/>
<polygon fill="#000000" stroke="#000000" points="890.5001,-140.9909 894,-150.991 897.5001,-140.991 890.5001,-140.9909"/>
</g>
</g>
</svg>
