<?xml version="1.0" encoding="UTF-8" standalone="no"?>
<!DOCTYPE svg PUBLIC "-//W3C//DTD SVG 1.1//EN"
 "http://www.w3.org/Graphics/SVG/1.1/DTD/svg11.dtd">
<!-- Generated by graphviz version 2.40.1 (20161225.0304)
 -->
<!-- Title: dependencies Pages: 1 -->
<svg width="671pt" height="284pt"
 viewBox="0.00 0.00 671.00 284.00" xmlns="http://www.w3.org/2000/svg" xmlns:xlink="http://www.w3.org/1999/xlink">
<g id="graph0" class="graph" transform="scale(1 1) rotate(0) translate(4 280)">
<title>dependencies</title>
<polygon fill="#ffffff" stroke="transparent" points="-4,4 -4,-280 667,-280 667,4 -4,4"/>
<text text-anchor="start" x="310.5091" y="-42.4" font-family="sans-serif" font-weight="bold" font-size="14.00" fill="#000000">Legend</text>
<polygon fill="#ffffb3" stroke="transparent" points="97.5,-10 97.5,-30 117.5,-30 117.5,-10 97.5,-10"/>
<text text-anchor="start" x="121.129" y="-15.4" font-family="sans-serif" font-size="14.00" fill="#000000"> &#160;Declarations</text>
<polygon fill="#8dd3c7" stroke="transparent" points="210.5,-10 210.5,-30 230.5,-30 230.5,-10 210.5,-10"/>
<text text-anchor="start" x="234.2251" y="-15.4" font-family="sans-serif" font-size="14.00" fill="#000000"> &#160;Module</text>
<polygon fill="#80b1d3" stroke="transparent" points="296.5,-10 296.5,-30 316.5,-30 316.5,-10 296.5,-10"/>
<text text-anchor="start" x="320.2812" y="-15.4" font-family="sans-serif" font-size="14.00" fill="#000000"> &#160;Bootstrap</text>
<polygon fill="#fdb462" stroke="transparent" points="393.5,-10 393.5,-30 413.5,-30 413.5,-10 393.5,-10"/>
<text text-anchor="start" x="417.1732" y="-15.4" font-family="sans-serif" font-size="14.00" fill="#000000"> &#160;Providers</text>
<polygon fill="#fb8072" stroke="transparent" points="489.5,-10 489.5,-30 509.5,-30 509.5,-10 489.5,-10"/>
<text text-anchor="start" x="513.2258" y="-15.4" font-family="sans-serif" font-size="14.00" fill="#000000"> &#160;Exports</text>
<g id="clust1" class="cluster">
<title>cluster_AppModule</title>
<polygon fill="none" stroke="#000000" stroke-dasharray="1,5" points="8,-70 8,-268 655,-268 655,-70 8,-70"/>
</g>
<g id="clust2" class="cluster">
<title>cluster_AppModule_declarations</title>
<polygon fill="none" stroke="#000000" points="146,-78 146,-130 647,-130 647,-78 146,-78"/>
</g>
<g id="clust6" class="cluster">
<title>cluster_AppModule_imports</title>
<polygon fill="none" stroke="#000000" points="16,-78 16,-130 138,-130 138,-78 16,-78"/>
</g>
<g id="clust8" class="cluster">
<title>cluster_AppModule_bootstrap</title>
<polygon fill="none" stroke="#000000" points="271,-208 271,-260 395,-260 395,-208 271,-208"/>
</g>
<!-- AppComponent -->
<g id="node1" class="node">
<title>AppComponent</title>
<polygon fill="#ffffb3" stroke="#000000" points="638.9399,-122 533.0601,-122 533.0601,-86 638.9399,-86 638.9399,-122"/>
<text text-anchor="middle" x="586" y="-99.8" font-family="Times,serif" font-size="14.00" fill="#000000">AppComponent</text>
</g>
<!-- AppModule -->
<g id="node4" class="node">
<title>AppModule</title>
<polygon fill="#8dd3c7" stroke="#000000" points="374.6571,-187 371.6571,-191 350.6571,-191 347.6571,-187 291.3429,-187 291.3429,-151 374.6571,-151 374.6571,-187"/>
<text text-anchor="middle" x="333" y="-164.8" font-family="Times,serif" font-size="14.00" fill="#000000">AppModule</text>
</g>
<!-- AppComponent&#45;&gt;AppModule -->
<g id="edge1" class="edge">
<title>AppComponent&#45;&gt;AppModule</title>
<path fill="none" stroke="#000000" d="M586,-122.1061C586,-141.3391 586,-169 586,-169 586,-169 384.7778,-169 384.7778,-169"/>
<polygon fill="#000000" stroke="#000000" points="384.7778,-165.5001 374.7778,-169 384.7778,-172.5001 384.7778,-165.5001"/>
</g>
<!-- SimpleBootstrapComponent -->
<g id="node2" class="node">
<title>SimpleBootstrapComponent</title>
<polygon fill="#ffffb3" stroke="#000000" points="515.9396,-122 340.0604,-122 340.0604,-86 515.9396,-86 515.9396,-122"/>
<text text-anchor="middle" x="428" y="-99.8" font-family="Times,serif" font-size="14.00" fill="#000000">SimpleBootstrapComponent</text>
</g>
<!-- SimpleBootstrapComponent&#45;&gt;AppModule -->
<g id="edge2" class="edge">
<title>SimpleBootstrapComponent&#45;&gt;AppModule</title>
<path fill="none" stroke="#000000" d="M357.5544,-122.1061C357.5544,-122.1061 357.5544,-140.991 357.5544,-140.991"/>
<polygon fill="#000000" stroke="#000000" points="354.0544,-140.9909 357.5544,-150.991 361.0544,-140.991 354.0544,-140.9909"/>
</g>
<!-- SimpleMaterialComponent -->
<g id="node3" class="node">
<title>SimpleMaterialComponent</title>
<polygon fill="#ffffb3" stroke="#000000" points="322.4227,-122 153.5773,-122 153.5773,-86 322.4227,-86 322.4227,-122"/>
<text text-anchor="middle" x="238" y="-99.8" font-family="Times,serif" font-size="14.00" fill="#000000">SimpleMaterialComponent</text>
</g>
<!-- SimpleMaterialComponent&#45;&gt;AppModule -->
<g id="edge3" class="edge">
<title>SimpleMaterialComponent&#45;&gt;AppModule</title>
<path fill="none" stroke="#000000" d="M306.6914,-122.1061C306.6914,-122.1061 306.6914,-140.991 306.6914,-140.991"/>
<polygon fill="#000000" stroke="#000000" points="303.1915,-140.9909 306.6914,-150.991 310.1915,-140.991 303.1915,-140.9909"/>
</g>
<!-- AppComponent  -->
<g id="node6" class="node">
<title>AppComponent </title>
<polygon fill="#80b1d3" stroke="#000000" points="387.439,-252 278.561,-252 278.561,-216 387.439,-216 387.439,-252"/>
<text text-anchor="middle" x="333" y="-229.8" font-family="Times,serif" font-size="14.00" fill="#000000">AppComponent </text>
</g>
<!-- AppModule&#45;&gt;AppComponent  -->
<g id="edge5" class="edge">
<title>AppModule&#45;&gt;AppComponent </title>
<path fill="none" stroke="#000000" stroke-dasharray="1,5" d="M333,-187.1061C333,-187.1061 333,-205.991 333,-205.991"/>
<polygon fill="#000000" stroke="#000000" points="329.5001,-205.9909 333,-215.991 336.5001,-205.991 329.5001,-205.9909"/>
</g>
<!-- MaterialModule -->
<g id="node5" class="node">
<title>MaterialModule</title>
<polygon fill="#8dd3c7" stroke="#000000" points="130.4706,-122 127.4706,-126 106.4706,-126 103.4706,-122 23.5294,-122 23.5294,-86 130.4706,-86 130.4706,-122"/>
<text text-anchor="middle" x="77" y="-99.8" font-family="Times,serif" font-size="14.00" fill="#000000">MaterialModule</text>
</g>
<!-- MaterialModule&#45;&gt;AppModule -->
<g id="edge4" class="edge">
<title>MaterialModule&#45;&gt;AppModule</title>
<path fill="none" stroke="#000000" d="M77,-122.1061C77,-141.3391 77,-169 77,-169 77,-169 281.2994,-169 281.2994,-169"/>
<polygon fill="#000000" stroke="#000000" points="281.2995,-172.5001 291.2994,-169 281.2994,-165.5001 281.2995,-172.5001"/>
</g>
</g>
</svg>
